<?xml version="1.0" encoding="UTF-8"?>
<!-- Created with Inkscape (http://www.inkscape.org/) -->
<svg width="3779.5" height="3779.5" version="1.1" viewBox="0 0 3779.5 3779.5" xml:space="preserve" xmlns="http://www.w3.org/2000/svg" xmlns:xlink="http://www.w3.org/1999/xlink"><defs><linearGradient id="linearGradient106"><stop stop-color="#5c0dfe" offset="0"/><stop stop-color="#a324ff" offset="1"/></linearGradient><clipPath id="clipPath674"><path d="m5487.9 1014c-126.1 0-230.14 102.24-231.89 228.72l-1.67 120.47c-3.13 226.95 179.97 415.2 406.92 418.33l180.7 2.51c1.91 0.03 3.84 0.04 5.74 0.04 224.38 0 409.48-181.92 412.6-406.95l1.67-120.47c1.77-128.09-100.63-233.35-228.7-235.13l-542.13-7.5c-1.08-0.01-2.17-0.02-3.24-0.02m306.33 550.39c-7.57 0-15.2-0.03-22.86-0.09-57.66-0.46-112.94-2.65-165.57-6.12-124.42-8.2-224.79-95.82-238.71-208.17l-0.3-2.41c-4.1-33.18 14.59-65.2 47.14-80.73 12.85-6.13 27.16-9.33 41.7-9.33 0.45 0 0.91 0 1.36 0.01l603.67 8.36c15 0.21 29.71 3.83 42.77 10.51 32.11 16.43 49.91 48.95 44.88 82l-0.36 2.42c-17.08 112.34-120.58 196.79-245.65 201.51-34.94 1.32-70.98 2.04-108.07 2.04"/></clipPath><clipPath id="clipPath676"><path d="m5455.6 1257.5c-14.54 0-28.85 3.2-41.7 9.33-32.55 15.53-51.24 47.55-47.14 80.73l0.3 2.41c13.92 112.35 114.29 199.97 238.71 208.17 52.63 3.47 107.91 5.66 165.57 6.12 7.66 0.06 15.29 0.09 22.86 0.09 37.09 0 73.13-0.72 108.07-2.04 125.07-4.72 228.57-89.17 245.65-201.51l0.36-2.42c5.03-33.05-12.77-65.57-44.88-82-13.06-6.68-27.77-10.3-42.77-10.51l-603.67-8.36c-0.45-0.01-0.91-0.01-1.36-0.01m491.87 252.71c-0.54 0-1.08 0-1.63-0.01-62.86-0.87-113.12-52.54-112.25-115.4 0.87-62.34 51.67-112.26 113.8-112.26 0.54 0 1.08 0 1.61 0.01 62.87 0.86 113.12 52.54 112.25 115.41-0.86 62.32-51.64 112.25-113.78 112.25m-349.67 1.66c-0.53 0-1.07 0-1.6-0.01-62.88-0.87-113.13-52.54-112.26-115.41 0.86-62.33 51.66-112.27 113.81-112.27 0.53 0 1.07 0.01 1.6 0.02 62.86 0.88 113.13 52.53 112.25 115.41-0.87 62.33-51.66 112.26-113.8 112.26"/></clipPath><clipPath id="clipPath680"><path d="m5666.4 1399c0.53-37.9-29.76-69.05-67.66-69.57-37.92-0.53-69.06 29.77-69.58 67.67-0.53 37.9 29.77 69.05 67.67 69.58 37.9 0.52 69.05-29.78 69.57-67.68z"/></clipPath><clipPath id="clipPath687"><path d="m6016.1 1397.3c0.53-37.9-29.78-69.04-67.68-69.57s-69.05 29.78-69.58 67.68c-0.51 37.9 29.78 69.05 67.68 69.57 37.91 0.52 69.05-29.77 69.58-67.68z"/></clipPath><linearGradient id="linearGradient97" x1="694.66" x2="707.99" y1="572.35" y2="572.35" gradientTransform="matrix(18.726,0,0,18.726,-12487,-8467.8)" gradientUnits="userSpaceOnUse"><stop stop-color="#5c0dfe" offset="0"/><stop stop-color="#5c0dfe" stop-opacity="0" offset="1"/></linearGradient><linearGradient id="linearGradient105" x1="5254.3" x2="6262" y1="1399.1" y2="1399.1" gradientUnits="userSpaceOnUse" xlink:href="#linearGradient106"/><linearGradient id="linearGradient127" x1="3009" x2="3258.5" y1="2250" y2="2250" gradientUnits="userSpaceOnUse"><stop stop-color="#a224ff" stop-opacity=".17283" offset="0"/><stop stop-color="#a224ff" offset="1"/></linearGradient><linearGradient id="linearGradient136" x1="1285.2" x2="1693.3" y1="2243.3" y2="2243.3" gradientUnits="userSpaceOnUse" xlink:href="#linearGradient106"/><linearGradient id="linearGradient137" x1="782.08" x2="803.87" y1="572.22" y2="572.22" gradientUnits="userSpaceOnUse" xlink:href="#linearGradient106"/><linearGradient id="linearGradient139" x1="746.41" x2="753.19" y1="571.96" y2="571.96" gradientUnits="userSpaceOnUse" xlink:href="#linearGradient106"/><linearGradient id="linearGradient140" x1="739.55" x2="740.9" y1="576.27" y2="576.27" gradientUnits="userSpaceOnUse" xlink:href="#linearGradient106"/><linearGradient id="linearGradient141" x1="742.94" x2="745.65" y1="579.05" y2="579.05" gradientUnits="userSpaceOnUse" xlink:href="#linearGradient106"/><linearGradient id="linearGradient142" x1="793.04" x2="799.82" y1="572.17" y2="572.17" gradientUnits="userSpaceOnUse" xlink:href="#linearGradient106"/><linearGradient id="linearGradient143" x1="789.56" x2="792.26" y1="579.26" y2="579.26" gradientUnits="userSpaceOnUse" xlink:href="#linearGradient106"/><linearGradient id="linearGradient144" x1="786.18" x2="787.53" y1="576.49" y2="576.49" gradientUnits="userSpaceOnUse" xlink:href="#linearGradient106"/></defs><style type="text/css">
	.st0{fill:#000000;}
</style><style type="text/css">
	.st0{fill:#000000;}
</style><style type="text/css">
	.st0{fill:#000000;}
</style><style type="text/css">
	.st0{fill:#000000;}
</style><style type="text/css">
	.st0{fill:#000000;}
</style><style type="text/css">
	.st0{fill:#000000;}
</style><style type="text/css">
	.st0{fill:#000000;}
</style><style type="text/css">
	.st0{fill:#000000;}
</style><style type="text/css">
	.st0{fill:#000000;}
</style><style type="text/css">
	.st0{fill:#000000;}
</style><style type="text/css">
	.st0{fill:#000000;}
</style><style type="text/css">
	.st0{fill:#000000;}
</style><style type="text/css">
	.st0{fill:#000000;}
</style><style type="text/css">
	.st0{fill:#000000;}
</style><style type="text/css">
	.st0{fill:#000000;}
</style><style type="text/css">
	.st0{fill:#000000;}
</style><style type="text/css">
	.st0{fill:#000000;}
</style><style type="text/css">
	.st0{fill:#000000;}
</style><style type="text/css">
	.st0{fill:#000000;}
</style><style type="text/css">
	.st0{fill:#000000;}
</style><style type="text/css">
	.st0{fill:#000000;}
</style><style type="text/css">
	.st0{fill:#000000;}
</style><style type="text/css">
	.st0{fill:#000000;}
</style><style type="text/css">
	.st0{fill:#000000;}
</style><style type="text/css">
	.st0{fill:#000000;}
</style><style type="text/css">
	.st0{fill:#000000;}
</style><style type="text/css">
	.st0{fill:#000000;}
</style><style type="text/css">
	.st0{fill:#000000;}
</style><style type="text/css">
	.st0{fill:#000000;}
</style><style type="text/css">
	.st0{fill:#000000;}
</style><style type="text/css">
	.st0{fill:#000000;}
</style><style type="text/css">
	.st0{fill:#000000;}
</style><style type="text/css">
	.st0{fill:#000000;}
</style><style type="text/css">
	.st0{fill:#000000;}
</style><style type="text/css">
	.st0{fill:#000000;}
</style><style type="text/css">
	.st0{fill:#000000;}
</style><style type="text/css">
	.st0{fill:#000000;}
</style><style type="text/css">
	.st0{fill:#000000;}
</style><style type="text/css">
	.st0{fill:#000000;}
</style><style type="text/css">
	.st0{fill:#000000;}
</style><style type="text/css">
	.st0{fill:#000000;}
</style><style type="text/css">
	.st0{fill:#000000;}
</style><style type="text/css">
	.st0{fill:#000000;}
</style><style type="text/css">
	.st0{fill:#000000;}
</style><style type="text/css">
	.st0{fill:#000000;}
</style><style type="text/css">
	.st0{fill:#000000;}
</style><style type="text/css">
	.st0{fill:#000000;}
</style><style type="text/css">
	.st0{fill:#000000;}
</style><style type="text/css">
	.st0{fill:#000000;}
</style><style type="text/css">
	.st0{fill:#000000;}
</style><style type="text/css">
	.st0{fill:#000000;}
</style><style type="text/css">
	.st0{fill:#000000;}
</style><style type="text/css">
	.st0{fill:#000000;}
</style><style type="text/css">
	.st0{fill:#000000;}
</style><style type="text/css">
	.st0{fill:#000000;}
</style><style type="text/css">
	.st0{fill:#000000;}
</style><style type="text/css">
	.st0{fill:#000000;}
</style><style type="text/css">
	.st0{fill:#000000;}
</style><style type="text/css">
	.st0{fill:#000000;}
</style><style type="text/css">
	.st0{fill:#000000;}
</style><style type="text/css">
	.st0{fill:#000000;}
</style><style type="text/css">
	.st0{fill:#000000;}
</style><style type="text/css">
	.st0{fill:#000000;}
</style><style type="text/css">
	.st0{fill:#000000;}
</style><style type="text/css">
	.st0{fill:#000000;}
</style><style type="text/css">
	.st0{fill:#000000;}
</style><style type="text/css">
	.st0{fill:#000000;}
</style><style type="text/css">
	.st0{fill:#000000;}
</style><g stroke-width="1.0399"><path d="m2225.8 1545.2c25.857-1.1255 55.33-5.659 69.799-19.293 59.258-55.845 83.526-164 51.39-238.81-55.079-128.24-61.601-432.38-51.39-435.3-59.86 0-155.75 327.27-135.15 498.92 7.7137 64.241 17.252 193.35 17.252 193.35s22.239 2.2819 48.096 1.1554z" fill="#8a1cff"/><path d="m2478.1 1561.7c24.524 1.0262 47.912-2.3707 59.978-15.876 102.21-114.43 22.172-325.35-51.3-457.44-9.1522 183.42-60.953 404.95-93.578 457.59 0 0 44.027 14.011 84.9 15.723z" fill="#901eff"/><path d="m1917.2 1584.9c32.632-1.4213 69.829-7.1436 88.091-24.351 74.786-70.477 105.41-206.96 64.856-301.38-69.509-161.83-77.743-545.68-64.856-549.35-75.541 0-196.57 413.02-170.56 629.62 9.7347 81.074 21.773 244 21.773 244s28.066 2.881 60.698 1.4587z" fill="#881bff"/><path d="m2737.6 1625.5c16.466-113.84 22.172-224.99-51.3-316.36 13.519 131.77-18.253 210.74-76.951 273.61z" fill="#9620ff"/></g><path d="m2864.8 1714.3c12.835-88.739 17.283-175.38-39.988-246.6 10.538 102.71-14.228 164.27-59.983 213.27z" fill="#9620ff" stroke-width=".81061"/><path d="m1470.6 1661.7c40.429-1.7603 86.516-8.8509 109.14-30.17 92.656-87.317 130.6-256.42 80.353-373.4-86.121-200.5-96.321-676.06-80.353-680.62-93.593 0-243.55 511.73-211.32 780.09 12.061 100.45 26.975 302.31 26.975 302.31s34.772 3.5696 75.202 1.8071z" fill="#7515fe" stroke-width="1.2884"/><rect x="3009" y="1911.8" width="249.58" height="676.27" ry="112.71" fill="url(#linearGradient127)"/><circle cx="2358.8" cy="2245" r="292.41" fill="#14001a" stroke-width="18.726"/><circle cx="1487.8" cy="2245" r="292.41" fill="#14001a" stroke-width="18.726"/><path d="m1027.3 1694.3s231.64 5.6119 285.9-76.808c27.264-41.413-0.5292-102.2-21.335-147.21-40.19-86.89-153.1-127.09-189.88-215.49-53.412-128.32-27.737-416.04-27.737-416.04s-235.86 284.48-224.02 452.31c6.5457 92.883 125.46 143.15 157.88 230.42 20.184 54.329 19.202 172.82 19.202 172.82z" fill="#6911fe" stroke-width="1.038"/><path transform="matrix(2.4967 0 0 -2.4967 -12487 5734)" d="m5847.7 1784.1c-1.9 0-3.8323-0.014-5.7423-0.044l-180.69-2.5049c-226.95-3.13-410.06-191.39-406.93-418.34l1.6699-120.47c1.75-126.48 105.79-228.71 231.89-228.71 1.07 0 2.1574 0 3.2374 0.015l542.14 7.5001c128.07 1.78 230.47 107.04 228.7 235.13l-1.67 120.47c-3.12 225.03-188.22 406.96-412.6 406.96zm-53.468-219.69c37.09 0 73.124-0.7162 108.06-2.0362 125.07-4.72 228.58-89.169 245.66-201.51l0.3516-2.417c5.03-33.05-12.774-65.574-44.884-82.004-13.06-6.68-27.76-10.308-42.76-10.518l-603.68-8.3498c-0.45-0.01-0.9123-0.015-1.3623-0.015-14.54 0-28.84 3.2013-41.69 9.3313-32.55 15.53-51.24 47.55-47.14 80.73l0.293 2.4171c13.92 112.35 114.3 199.96 238.72 208.16 52.63 3.47 107.9 5.6632 165.56 6.1232 7.66 0.06 15.297 0.088 22.867 0.088zm-114.55-382.2c2.5992-0.036 5.1627-1.1867 6.9289-3.3692 0.42-0.51 27.335-33.082 70.475-37.442 31.07-3.12 63.261 8.8366 95.701 35.597 3.85 3.18 9.5452 2.6341 12.715-1.2159 3.19-3.86 2.6488-9.5498-1.2012-12.73-29.19-24.08-58.63-37.42-87.79-39.83-7.19-0.5903-14.364-0.51-21.504 0.2197-50.85 5.26-81.232 42.518-82.502 44.108-3.11 3.88-2.4937 9.5758 1.4063 12.686 1.7063 1.3607 3.75 2.0055 5.7716 1.9776z" clip-path="url(#clipPath674)" fill="url(#linearGradient105)"/><path transform="matrix(2.4967 0 0 -2.4967 -12487 5734)" d="m5455.6 1257.5c-14.54 0-28.85 3.2-41.7 9.33-32.55 15.53-51.24 47.55-47.14 80.73l0.3 2.41c13.92 112.35 114.29 199.97 238.71 208.17 52.63 3.47 107.91 5.66 165.57 6.12 7.66 0.06 15.29 0.09 22.86 0.09 37.09 0 73.13-0.72 108.07-2.04 125.07-4.72 228.57-89.17 245.65-201.51l0.36-2.42c5.03-33.05-12.77-65.57-44.88-82-13.06-6.68-27.77-10.3-42.77-10.51l-603.67-8.36c-0.45-0.01-0.91-0.01-1.36-0.01m491.87 252.71c-0.54 0-1.08 0-1.63-0.01-62.86-0.87-113.12-52.54-112.25-115.4 0.87-62.34 51.67-112.26 113.8-112.26 0.54 0 1.08 0 1.61 0.01 62.87 0.86 113.12 52.54 112.25 115.41-0.86 62.32-51.64 112.25-113.78 112.25m-349.67 1.66c-0.53 0-1.07 0-1.6-0.01-62.88-0.87-113.13-52.54-112.26-115.41 0.86-62.33 51.66-112.27 113.81-112.27 0.53 0 1.07 0.01 1.6 0.02 62.86 0.88 113.13 52.53 112.25 115.41-0.87 62.33-51.66 112.26-113.8 112.26" clip-path="url(#clipPath676)" fill="#14001a"/><path d="m1693.3 2240.5c1.5486 112.68-88.51 205.27-201.19 206.83-112.68 1.573-205.26-88.484-206.81-201.15-1.573-112.68 88.51-205.26 201.15-206.81 112.65-1.573 205.26 88.51 206.83 201.14" fill="url(#linearGradient136)" stroke-width="2.4967"/><path transform="matrix(2.4967 0 0 -2.4967 -12487 5734)" d="m5666.4 1399c0.53-37.9-29.76-69.05-67.66-69.57-37.92-0.53-69.06 29.77-69.58 67.67-0.53 37.9 29.77 69.05 67.67 69.58 37.9 0.52 69.05-29.78 69.57-67.68" clip-path="url(#clipPath680)" fill="#14001a"/><g transform="matrix(18.726,0,0,18.726,-12487,-8467.8)" stroke-width=".13333"><path d="m753.19 571.91c0.0253 1.872-1.472 3.4106-3.3426 3.4359-1.872 0.0267-3.4119-1.4706-3.4372-3.3412-0.0267-1.8733 1.4706-3.4119 3.3426-3.4386 1.872-0.0253 3.4106 1.472 3.4372 3.3439" fill="url(#linearGradient139)"/><path d="m745.65 579.03c9e-3 0.74665-0.58799 1.3613-1.3333 1.3706-0.74799 0.0107-1.3613-0.58665-1.372-1.3346-0.0107-0.74531 0.58665-1.36 1.3333-1.3706 0.74798-0.0107 1.3613 0.58798 1.372 1.3346" fill="url(#linearGradient141)"/><path d="m740.9 576.26c5e-3 0.37332-0.29333 0.67998-0.66665 0.68531-0.37333 4e-3 -0.67999-0.29332-0.68532-0.66665-5e-3 -0.37332 0.29333-0.67998 0.66665-0.68531 0.37466-5e-3 0.67998 0.29332 0.68532 0.66665" fill="url(#linearGradient140)"/><path d="m803.87 572.07c0.0827 6.0172-4.7266 10.961-10.742 11.045-6.0172 0.0827-10.962-4.7266-11.045-10.742-0.084-6.0172 4.7266-10.962 10.742-11.045 6.0172-0.084 10.961 4.7266 11.045 10.742" fill="url(#linearGradient137)"/></g><path transform="matrix(2.4967 0 0 -2.4967 -12487 5734)" d="m6016.1 1397.3c0.53-37.9-29.78-69.04-67.68-69.57s-69.05 29.78-69.58 67.68c-0.51 37.9 29.78 69.05 67.68 69.57 37.91 0.52 69.05-29.77 69.58-67.68" clip-path="url(#clipPath687)" fill="#14001a"/><g transform="matrix(18.726,0,0,18.726,-12487,-8467.8)" stroke-width=".13333"><path d="m799.82 572.12c0.0267 1.8733-1.4693 3.4106-3.3412 3.4359-1.8733 0.0267-3.4106-1.4693-3.4359-3.3412-0.0267-1.8733 1.4693-3.4106 3.3412-3.4372 1.8733-0.0253 3.4106 1.4706 3.4359 3.3426" fill="url(#linearGradient142)"/><path d="m792.26 579.24c0.0107 0.74798-0.58532 1.3613-1.3333 1.3706-0.74531 0.0107-1.36-0.58532-1.3706-1.3333-0.0107-0.74665 0.58665-1.36 1.3346-1.3706 0.74665-0.0107 1.3613 0.58798 1.3693 1.3333" fill="url(#linearGradient143)"/><path d="m787.53 576.48c5e-3 0.37332-0.29333 0.68131-0.66665 0.68665-0.37466 4e-3 -0.68132-0.29333-0.68665-0.66665-5e-3 -0.37466 0.29332-0.68132 0.66665-0.68665 0.37332-5e-3 0.68131 0.29466 0.68665 0.66665" fill="url(#linearGradient144)"/></g><rect x="521.2" y="1911.8" width="249.58" height="676.27" ry="112.71" fill="url(#linearGradient97)" stroke-width="18.726"/><style type="text/css">
	.st0{fill:#000000;}
</style><style type="text/css">
	.st0{fill:#000000;}
</style><style type="text/css">
	.st0{fill:#000000;}
</style><style type="text/css">
	.st0{fill:#000000;}
</style><style type="text/css">
	.st0{fill:#000000;}
</style><style type="text/css">
	.st0{fill:#000000;}
</style><style type="text/css">
	.st0{fill:#000000;}
</style><style type="text/css">
	.st0{fill:#000000;}
</style></svg>
